<?xml version="1.0" encoding="UTF-8"?>
<svg id="Layer_2" data-name="Layer 2" xmlns="http://www.w3.org/2000/svg" viewBox="0 0 183.04 69.62">
  <defs>
    <style>
      .cls-1, .cls-2 {
        fill: #fff;
      }

      .cls-2 {
        fill-rule: evenodd;
      }
    </style>
  </defs>
  <g id="Layer_1-2" data-name="Layer 1">
    <path class="cls-2" d="m61.02,22.05c-.05-.17-.36-.23-.69-.13-.33.11-.55.33-.5.5.05.17.35.23.69.12.33-.1.55-.33.5-.5h0Zm-1.68.25l.23.61-4.44,1.74-.23-.61,4.44-1.74h0Zm-6.93,23.19l1.12-1.14.1-2.4-.88.29-.34,3.24h0Zm1.8-1.64l1.15-1.1-.12-1.28-.89.29-.14,2.09h0Zm1.78-1.72l1.12-.87-1.05.06-.07.81h0Zm-.28,1.07l1.79-.31.18-1.26-1.97,1.57h0Zm-.86.97l-1.37,1.5,3.46-.44.35-1.2-2.44.14h0Zm.18-3.37l-.71-.86-.05,1.34.76-.49h0Zm.33-.31l.09-.77-1.74-3.01-.16,1.63,1.81,2.14h0Zm.26-1.72l.33-1.55-1.52-2.93-.56,1.12,1.75,3.37h0Zm.53-2.44l.33-1.57-1.21-2.06-.58.76,1.45,2.87h0Zm.62-2.37l.38-1.58-.81-.98-.56.74.99,1.82h0Zm.55-2.46l.48-1.36-.86.66.39.7h0Zm.38,1.06l1.3-1.3-.53-1.15-.76,2.45h0Zm-.2,1.29l-.33,2.02,2.64-2.36-.36-1.2-1.95,1.54h0Zm-.76,4.37l3.1-2.01.09-1.76-2.95,2.13-.24,1.64h0Zm-.32.9l-.16.9,3.32-1.87.16-.92-3.32,1.88h0Zm-.18,1.66l1.71.11.97-1.58-2.68,1.47h0Zm-15.98,8.5c-2.62,1.38-5.6,2.17-8.76,2.17s-6.12-.78-8.73-2.15c.82-.16,1.7-.38,2.91-.05.34.09.65.22,1,.29,1.8.32,2.55-.99,4.84-.18,2.73-.86,2.58.69,5.46.04,1.8-.54,2.53-.3,3.28-.11h0Zm4.17-2.99c-.85.8-1.77,1.52-2.75,2.16-1.52.18-2.36-.63-4.33-.08-3.07.96-2.74-.82-5.86.07-2.52-.86-2.86.83-5.57,0-2.06-.68-2.76.26-4.62,0-.97-.63-1.87-1.34-2.71-2.12.53-.01,1.01.03,1.44.13.44.1.84.32,1.3.38,1.37.2,2.43-.66,4.36-.14.34.09.65.22,1,.29,1.8.32,2.55-.99,4.84-.18,2.73-.86,2.58.69,5.46.04,2.8-.85,3.02.23,4.76-.02.37-.05.69-.19,1.05-.29.54-.15,1.09-.23,1.64-.23h0Zm2.02-2.24c-.39.51-.81,1.01-1.26,1.48-.81-.12-1.64-.1-2.46.15-2.27.84-2.99-.48-5.38.18-3.07.96-2.74-.82-5.86.07-2.52-.86-2.86.83-5.57,0-2.37-.78-2.95.59-5.56-.22-.36-.11-.67-.22-1.05-.26-.53-.06-1.03-.02-1.5.08-.44-.46-.85-.95-1.24-1.46,1.41-.3,2.54-.36,3.46-.14.44.1.84.32,1.3.38,1.37.2,2.43-.66,4.36-.14.34.09.65.22,1,.29,1.8.32,2.55-.99,4.84-.18,2.73-.86,2.58.69,5.46.04,2.8-.85,3.02.23,4.76-.02.37-.05.69-.19,1.05-.29,1.18-.34,2.44-.29,3.66.04h0ZM1.43,25.77h-.02c-.27,1.66-.62,3.88-.75,5.54-.03.36-.04.66-.05,1.02h0c0,3.35.42,6.18,1.4,9.38,2.1,6.83,6.54,12.73,12.53,16.64,3.18,2.08,6.18,3.36,9.88,4.23-.57.26-1.05.45-1.64.64h0c-1.35.44-2.76.58-4.17.41-.5-.06-.99-.15-1.47-.27-.48-.12-.96-.26-1.43-.42-.91-.32-1.5-.59-2.34-.96l2.49,4.45-8.06,3.19,1.68-.03c.79-.02,1.46-.02,2.25-.03.98,0,1.81-.02,2.78-.04.94-.02,1.73-.07,2.66-.16,1.04-.09,1.91-.23,2.93-.46h0c1.75-.39,3.43-1.06,4.94-2.03,1.51-.97,2.81-2.18,3.93-3.57l.77,1.24.27-.29c.15-.16.27-.32.38-.52.06-.11.12-.22.17-.33.06-.14.15-.31.24-.43.08-.1.19-.16.32-.19.09-.02.16-.02.25-.02h0c.15,0,.28.02.42.07.14.06.28.16.38.28.12.14.21.26.31.41h0c.33.5.43.59.84,1.01l.77-1.23c1.45,1.78,3.17,3.28,5.24,4.31.84.42,1.73.77,2.63,1.03.9.26,1.67.42,2.6.56,1.02.15,1.88.23,2.91.27,1.04.05,2.26.07,3.36.08,1.86.01,2.72.03,4.43.06l-8.06-3.18,2.49-4.46-.83.37c-.82.36-1.53.62-2.39.87-.93.27-1.88.44-2.84.47-1.82.06-3.35-.38-4.98-1.11,2.98-.7,5.42-1.65,8.09-3.15,7.9-4.43,13.45-12.12,15.16-21.07.4-2.1.57-3.9.57-6.03,0-.5-.04-1.1-.08-1.6-.05-.61-.09-1.03-.16-1.64-.14-1.19-.27-2.21-.44-3.37.17-.06.34-.13.52-.21.14-.06.25-.12.38-.21.07-.05.13-.1.19-.16.22-.22.25-.51.16-.8-.04-.12-.07-.23-.12-.34-.08-.2-.15-.37-.21-.57h0c-.73-1.98-1.47-3.6-2.47-5.45-1.74-3.2-3.92-6.15-6.52-8.71-1.25-1.22-2.38-2.17-3.79-3.19-2.96-2.13-5.76-3.52-9.24-4.59-1.64-.51-3.06-.83-4.76-1.09-1.53-.23-2.83-.35-4.37-.4h-.02c-2.07.06-3.82.26-5.86.67-1.76.35-3.5.85-5.18,1.49-3.23,1.22-6.24,2.97-8.91,5.16-1.5,1.23-2.68,2.37-3.95,3.82-2.19,2.49-3.99,5.23-5.47,8.22-.69,1.4-1.22,2.61-1.76,4.08h0c-.06.2-.11.32-.18.5l-.08.21c-.06.14-.09.26-.11.4-.03.18,0,.35.11.5.06.09.15.18.23.24.17.12.36.22.55.3.18.07.33.13.51.2h.02ZM31.53.61c1.51.05,2.79.16,4.29.39,1.67.26,3.06.58,4.68,1.07,3.24,1,6.31,2.52,9.06,4.5,1.39,1,2.5,1.94,3.72,3.13,1.35,1.32,2.4,2.53,3.53,4.05,1.12,1.51,1.98,2.86,2.88,4.52.99,1.82,1.71,3.42,2.43,5.36.07.21.14.39.23.6.04.09.07.19.1.29.01.04.02.07.02.11,0,.04,0,.07-.04.1-.03.03-.06.05-.09.07-.09.06-.19.11-.29.16-.24.11-.45.19-.71.27h-.02s-5.26,2.63-5.26,2.63h0c-.12.07-.23.13-.36.18-.24.1-.53.19-.79.15-.13-.02-.24-.07-.34-.15-.12-.1-.23-.21-.31-.34-.11-.16-.19-.32-.27-.49-.08-.18-.15-.35-.22-.54-.08-.21-.14-.39-.2-.6-.69-2.27-1.54-4.1-2.83-6.09-1.99-3.07-4.65-5.69-7.79-7.58-2.22-1.33-4.64-2.27-7.19-2.73-1.47-.27-2.73-.36-4.22-.31-2.33-.07-4.31.19-6.54.88-1.12.34-2.2.77-3.25,1.29-3.39,1.68-6.32,4.2-8.56,7.24-1.72,2.32-2.83,4.54-3.68,7.3-.11.34-.21.63-.34.96-.07.17-.14.32-.23.48h0c-.09.18-.19.31-.33.46-.17.18-.41.26-.66.24-.16-.02-.3-.05-.45-.11-.21-.08-.3-.13-.49-.23l-5.26-2.62h-.02c-.21-.08-.38-.14-.58-.23-.1-.04-.2-.09-.29-.14-.06-.03-.17-.1-.22-.17-.01-.02-.02-.05-.02-.08.02-.15.1-.33.16-.47.07-.18.13-.34.19-.52.54-1.44,1.05-2.64,1.73-4.01C6.5,11.93,12.6,5.79,20.7,2.72c1.74-.66,3.26-1.09,5.08-1.46,2-.4,3.71-.59,5.75-.65h0Zm21.57,26s-.02-.06,0,0c.03.08.06.17.09.26.07.21.14.38.23.58.09.21.19.38.31.58.25.38.61.7,1.08.76.21.03.38.02.59-.02.19-.04.35-.09.53-.17.15-.06.27-.12.41-.2l4.86-2.42c.16,1.11.29,2.06.41,3.19.07.57.11,1.05.16,1.62.04.51.08,1.04.08,1.55,0,2.09-.16,3.86-.56,5.91-1.67,8.78-7.11,16.31-14.86,20.65-2.89,1.62-5.54,2.61-8.78,3.27-.16.03-.27.19-.24.36.02.09.08.17.16.21.54.27,1.01.49,1.58.71,2.01.81,3.95,1.05,6.09.67.49-.09.9-.18,1.39-.32h0c.59-.17,1.08-.34,1.65-.56l-1.96,3.5,5.6,2.21c-.39,0-.71,0-1.1,0-1.06,0-2.35-.03-3.33-.08h0c-1.01-.05-1.85-.13-2.85-.27-.9-.13-1.65-.29-2.52-.54-.92-.26-1.67-.56-2.53-.98-.76-.38-1.38-.76-2.07-1.27-.65-.48-1.26-1.01-1.82-1.59-.53-.54-.95-1.02-1.42-1.62l-.27-.35-.8,1.29c-.07-.09-.18-.25-.24-.34-.11-.17-.22-.31-.35-.47-.17-.21-.36-.34-.61-.45-.2-.08-.44-.12-.66-.12-.13,0-.24,0-.37.03-.39.07-.66.31-.85.67-.05.1-.1.18-.14.29-.05.11-.13.26-.19.36l-.79-1.27-.27.35c-.62.81-1.2,1.44-1.95,2.14-.69.64-1.31,1.13-2.1,1.63-.8.51-1.51.87-2.39,1.22-.8.32-1.51.53-2.35.72-.94.21-1.89.36-2.85.45-.92.08-1.7.13-2.62.15-.97.03-1.8.04-2.77.04-.15,0-.44,0-.6,0l5.6-2.21-1.96-3.5c2.71,1.06,5.35,1.47,8.19.55.48-.15.88-.31,1.35-.51.42-.18.76-.34,1.17-.54.15-.08.21-.26.14-.41-.04-.09-.12-.14-.21-.16-3.95-.81-7.16-2.13-10.54-4.34-6.13-4.01-10.13-9.31-12.28-16.31-.96-3.14-1.38-5.91-1.37-9.19,0-1,.19-2.46.32-3.39.14-.96.26-1.77.41-2.73.17.03.31.04.48.05h.01s4.27,2.13,4.27,2.13c.19.11.36.18.56.26.21.08.39.12.61.14.44.05.84-.1,1.15-.42.18-.18.31-.36.43-.59.1-.18.18-.35.26-.54.08-.21.16-.4.22-.6.13.03.25.05.38.09.12.03.21.07.32.12.07.03.14.08.19.14,0,0,0,.02,0,.03-.13.49-.22.92-.3,1.42-.13.89-.17,1.72-.19,2.64,0,.41,0,.76,0,1.18,0,5.7,1.92,10.56,5.83,14.71,1.86,1.98,3.75,3.37,6.2,4.55,2.2,1.06,4.21,1.63,6.64,1.89.27.06.49.15.73.28.55.3.84.74,1.15,1.26.11.19.26.42.4.58.11.13.3.14.43.03.01-.01.02-.02.03-.03.1-.12.19-.23.27-.36.07-.11.13-.2.2-.32.33-.54.66-.95,1.22-1.22.2-.1.38-.16.6-.21,2.96-.32,5.41-1.11,7.99-2.6,2.35-1.36,4.13-2.88,5.85-4.99,3.26-4,4.83-8.41,4.83-13.57,0-1.37,0-2.72-.23-4.07-.07-.41-.15-.76-.26-1.17,0-.01,0-.02,0-.03.04-.05.07-.08.12-.11.15-.09.28-.14.45-.19h0c.1-.03.2-.06.29-.08h0Zm-42.96-.55c.79-2.52,1.97-4.82,3.53-6.94,1.51-2.06,3.06-3.6,5.13-5.11,1.07-.78,2.03-1.36,3.22-1.95,2.95-1.46,6.2-2.21,9.51-2.11h.02c2.63-.08,5.23.37,7.7,1.31,2.24.86,4.31,2.08,6.17,3.62,1.97,1.63,3.43,3.27,4.81,5.42,1.17,1.81,2.04,3.68,2.69,5.72-.09.02-.18.05-.28.08-.22.06-.39.14-.58.25-.11.07-.22.16-.3.26-.12.15-.17.36-.12.55.11.39.18.72.24,1.12.22,1.31.23,2.65.23,3.97h0c0,5.02-1.52,9.3-4.69,13.19-1.66,2.05-3.39,3.52-5.68,4.84-2.51,1.44-4.89,2.22-7.77,2.52-.01,0-.02,0-.04,0-.27.06-.49.14-.75.26-.45.21-.84.55-1.14.95-.13.17-.23.32-.34.51-.06.1-.11.18-.18.28-.04-.06-.07-.11-.11-.18-.37-.62-.73-1.13-1.38-1.48-.3-.16-.57-.27-.91-.34-.01,0-.02,0-.04,0-2.36-.25-4.32-.81-6.46-1.84-2.27-1.09-4.3-2.59-6.02-4.42-3.79-4.04-5.66-8.76-5.66-14.3h0c0-1.76,0-3.39.47-5.09.05-.2,0-.43-.14-.58-.11-.13-.23-.22-.39-.29-.14-.07-.26-.11-.41-.16-.11-.03-.24-.06-.36-.09h0Zm-1.41-5.06l.82.21.29-.63-4.7-1.19-.3.65,3.91,2.93.29-.63-.68-.51.37-.82h0Zm-.93-.25l-.23.49-1.26-.9h0s1.48.4,1.48.4h0Zm11.93-10.03c.4-.22.62-.73.14-1.62-.32-.59-.68-.93-1.03-.83h0c.08-.28-.03-.63-.23-1.01-.44-.81-.86-.96-1.24-.74l-.8.45,2.3,4.24.86-.49h0Zm-1.26-1.58l.06-.03c.18-.1.43-.31.71.2.25.47-.04.61-.2.7l-.07.04-.49-.91h0Zm-.89-1.64l.04-.02c.15-.09.34-.16.55.23.2.36.07.5-.08.58l-.06.04-.45-.82h0Zm23.55-.07c.37,0,.74-.47.97-1.1.35-.97.15-1.53-.31-1.7l-.9-.33-1.62,4.56.6.22.63-1.75h0s-.06,1.97-.06,1.97l.75.28-.06-2.14h0Zm.04-2l.06.02c.2.07.39.23.22.72-.18.5-.42.49-.62.41l-.06-.02.41-1.14h0Zm2.38,5.33c.39.22.94.15,1.42-.74.32-.59.41-1.08.15-1.33h0c.27-.09.5-.36.71-.74.44-.81.34-1.25-.04-1.46l-.8-.45-2.3,4.24.86.49h0Zm.65-1.93l.06.03c.18.1.49.21.21.72-.25.47-.52.29-.69.2l-.07-.04.49-.91h0Zm.89-1.64l.04.02c.15.09.31.21.1.59-.2.36-.38.32-.53.24l-.06-.04.45-.82h0Zm4.15,7.9l.62.68c.47.51,1.62.21,2.59-.72.98-.93,1.35-2.08.88-2.59l-.62-.68-3.48,3.31h0Zm3.15-2.1l.1.11c.28.31.13.86-.49,1.45-.68.64-1.2.68-1.46.4l-.1-.11,1.94-1.85h0Zm6.45,8.71c.13-.3.15-.65.06-.88-.19-.46-.91-.55-1.8-.16-.85.37-.93.7-.97,1.16-.02.16-.03.44-.35.58-.31.13-.5.04-.56-.1-.09-.21.04-.47.23-.73l-1.02.14c-.21.37-.28.74-.16,1.03.1.23.32.42.69.48.37.06.84-.08,1.28-.27.71-.31.91-.69.96-1.09l.02-.19c.02-.13.05-.34.31-.45.24-.11.43-.01.47.1.06.15,0,.34-.12.53l.98-.14h0Zm-1.77-2l.92-.5-.66-1.26-4.2,2.28.66,1.26.92-.5-.36-.69.73-.4.34.65.92-.5-.34-.65.7-.38.36.69h0Zm-3.06-2.39l-1.89,1.3.36.54,1.89-1.3,2.56-.64-.43-.65-1.33.35.81-1.13-.43-.65-1.54,2.18h0Zm2.19-4c-.11-.14-.42-.09-.69.13-.27.22-.4.5-.29.65.11.14.41.09.68-.13.27-.21.4-.5.29-.65h0Zm-1.06,1.31l-.39-.52-3.74,2.98.39.52,3.74-2.98h0Zm-3.82-2.74l.7-.79-1.04-.96-3.18,3.6,1.04.96.7-.79-.57-.52.55-.63.54.49.7-.79-.54-.49.53-.6.57.52h0Zm-1.49-2.71l-.51-.4-2.93,3.82,1.11.89.64-.84-.61-.48,2.28-2.98h0Zm-1.87-.1l.57-.9-1.18-.78-2.59,4.07,1.18.78.57-.9-.64-.42.45-.71.61.4.57-.9-.61-.4.43-.67.64.42h0Zm-7.91-6.8c-.17-.05-.38.19-.47.52-.09.34-.02.65.15.69.17.05.38-.18.47-.52.09-.34.02-.65-.15-.69h0Zm-.11,1.72l-.62-.17-1.23,4.68.62.17,1.23-4.68h0Zm-3.4,1.11l.35-1.84-.63-.12-.91,4.76.63.12.37-1.95.91.18-.37,1.95.63.12.91-4.76-.63-.13-.35,1.84-.91-.18h0Zm-1.36-1.02l.11-1.06-1.4-.15-.5,4.82,1.4.15.11-1.06-.76-.08.09-.84.72.08.11-1.06-.72-.08.08-.8.76.08h0Zm-2.9,4.22l-.32-.42-.44,1.01.25.32.51-.91h0Zm.62-5.22c-.22-.25-.52-.41-.77-.41-.49,0-.86.63-.88,1.61-.02.94.25,1.15.64,1.38.14.08.39.21.38.56,0,.34-.17.49-.32.48-.22,0-.4-.23-.56-.51l-.29,1.01c.25.35.55.56.86.57.25,0,.51-.13.71-.44.2-.32.27-.82.28-1.3.01-.78-.25-1.13-.59-1.34l-.16-.1c-.11-.07-.28-.19-.28-.47,0-.27.16-.4.28-.4.16,0,.31.13.42.33l.27-.97h0Zm-3.88,1.82h0s-.14-1.99-.14-1.99l-.64.05.33,4.84.64-.05-.14-2.1h0s.97,2.04.97,2.04l.83-.06-1.24-2.47.82-2.36-.79.06-.64,2.05h0Zm-2.56-1.66l.48,2.51c.12.62.22,1.3-.18,1.38-.4.08-.56-.59-.67-1.21l-.48-2.51-.63.12.51,2.68c.12.61.24,1.22.57,1.63.28.35.62.43.9.37.28-.06.57-.26.7-.69.15-.51.05-1.12-.07-1.73l-.51-2.68-.63.13h0Zm-.36-1.63c-.18.04-.27.34-.2.68.07.35.26.59.44.56.17-.03.26-.33.2-.68-.06-.34-.26-.59-.43-.56h0Zm-.82.16c-.18.03-.26.34-.2.68.07.35.26.59.44.56.17-.03.26-.33.2-.68-.06-.34-.26-.59-.43-.56h0Zm-1.88,4.84l.71,2.21.61-.2-.7-2.21.1-2.68-.73.24-.04,1.4-.84-1.11-.73.24,1.63,2.11h0Zm-2.82-1.65l.94,2.37c.23.58.46,1.23.08,1.39-.38.16-.66-.47-.89-1.06l-.94-2.37-.59.25,1,2.53c.23.58.47,1.15.87,1.49.34.29.69.3.96.19.27-.11.52-.36.56-.81.06-.53-.16-1.11-.39-1.68l-1-2.53-.59.25h0Zm-.69-1.5c-.17.07-.2.39-.07.71.13.33.36.53.53.46.16-.07.2-.38.07-.71-.13-.32-.36-.53-.53-.46h0Zm-.78.32c-.17.07-.2.39-.07.71.13.33.36.53.53.46.16-.07.2-.38.07-.71-.13-.32-.36-.53-.53-.46h0Zm-3.76,10l.51-.4-1.79-2.34h0s2.72,1.6,2.72,1.6l.51-.4-2.93-3.82-.51.4,1.79,2.34h0s-2.71-1.59-2.71-1.59l-.51.4,2.93,3.82h0Zm-4.25-2.58l1.77,1.8c.44.45.9.95.61,1.25-.29.3-.78-.17-1.22-.62l-1.77-1.8-.45.46,1.89,1.93c.43.44.87.87,1.37,1.02.42.13.75,0,.95-.21.2-.21.33-.54.2-.97-.15-.51-.57-.95-1-1.4l-1.89-1.93-.45.46h0Zm-1.65,2.11c-.32.03-.63.18-.78.38-.3.4-.03,1.08.73,1.69.72.58,1.05.49,1.47.31.14-.06.39-.19.67.03.26.21.28.43.19.55-.13.18-.43.19-.74.15l.62.85c.42.01.77-.11.96-.36.15-.2.21-.49.08-.84-.13-.36-.48-.71-.85-1.01-.61-.48-1.03-.48-1.4-.33l-.18.07c-.12.05-.31.12-.53-.06-.21-.17-.22-.38-.14-.47.1-.13.29-.17.51-.14l-.6-.81h0Zm.51,7.06l.36-.54-2.15-1.73h0s2.58,1.08,2.58,1.08l.14-.22-1.94-2.06h0s2.37,1.4,2.37,1.4l.36-.54-4.15-2.4-.36.54,1.81,1.9-2.39-1.03-.35.53,3.71,3.07h0Zm-5.57,1.34c-.3.13-.55.37-.63.6-.17.47.3,1.04,1.21,1.37.86.32,1.14.14,1.49-.17.12-.11.32-.31.64-.18.31.12.39.32.34.47-.08.21-.35.32-.66.37l.84.61c.41-.12.7-.34.81-.64.08-.24.05-.53-.18-.83-.23-.3-.67-.53-1.11-.69-.72-.27-1.13-.13-1.43.13l-.15.12c-.1.08-.26.21-.52.11-.25-.09-.32-.29-.28-.4.05-.15.22-.25.44-.3l-.81-.58h0Zm32.9,13.17c.94-.55,1.04-1,1.56-1.84.87.55,1,.94,1.14,1.94-.49.73-.69,1.47-.87,2.22-.28,1.14-1.43,1.05-1.66,1.11-.35.1-.13.43-.35.55-.19.11-.35,0-.55.07-.17.06-.25.15-.42.21-.6.22-.59-.03-1.63-.07,0-.38.49-.09.8-.17.23-.06-.09.41.59-.17.73-.62,1.56-1.09,1.94-1.32.45-.28.49-.71.14-1.18-.42-.55-.43-.83-.69-1.35h0Zm-2.29,3.19c-1.11-.24-1.25.31-1.56.83-.62-.14-.76-.02-1.25,0-.57.02-.8,0-1.45.1-.1-.45.75-.24,1.21-.38.83-.48,1.73-.81,2.11-.94.73-.24.66-.48.69-.83.04-.44.1-.75.31-1.11.35-.55.53-.17,1,.48.69.94.24.97-1.07,1.84h0Zm-1.81-12.71c.07.08.11.15.15.25.02.04.02.1,0,.14-.01.05-.06.1-.1.12-.19.09-.35.14-.56.17-.13.02-.27.03-.4,0-.13-.03-.19-.1-.22-.22-.02-.06-.03-.1-.04-.16-.02-.13-.05-.27-.09-.4-.06-.18-.12-.34-.17-.52-.05-.15-.08-.25-.13-.4-.12-.34-.28-.62-.51-.9-.26-.31-.53-.58-.86-.8-.18-.12-.35-.2-.55-.27-.22-.08-.42-.12-.65-.16-.09-.01-.19-.02-.29,0-.12.01-.21.03-.33.05-.2.04-.43.08-.63,0-.16-.06-.3-.11-.47-.17-.07-.02-.14-.04-.21-.05-.06,0-.12.01-.18.03.01.09.04.24.13.31,0,0,.1.07.11.08.04.03.06.09.03.14-.03.05-.07.09-.12.13-.05.04-.09.07-.14.1h0c-.06.03-.11.06-.17.09-.04.02-.15.1-.1.16.01.02.03.03.04.04.04.03.08.05.13.06.21.07.22.26.16.45-.05.17-.15.4-.23.57-.08.16-.14.3-.21.47-.09.21-.15.48-.03.69.05.08.11.14.21.18.06.02.11.04.17.07h0s.06.04.08.07l.07.08s.04.04.07.05c.03,0,.07,0,.1-.02.09-.05.16-.1.24-.17,0,0,.01,0,.02,0,.01,0,.02.01.02.03,0,.05-.02.11-.04.15-.02.06-.03.12-.01.19,0,.02.03.03.05.03.05,0,.08-.02.12-.03.07-.03.22-.08.27.03.04.09,0,.24-.02.33-.04.2-.1.36-.18.55-.03.08-.08.15-.12.22-.05.08-.11.15-.18.21-.15.13-.24.23-.33.41-.04.08-.08.15-.13.22,0,0-.01.01-.02.01-.2-.01-.38-.03-.58-.07-.22-.04-.41-.08-.63-.13-.22-.05-.44-.09-.67-.1-.24-.02-.5.01-.7.15-.26.17-.5.4-.69.65-.11.14-.2.27-.29.42-.1.16-.19.3-.29.47-.14.24-.23.33-.43.56-.08.09-.15.2-.19.31-.06.13-.1.25-.14.39-.02.08-.07.18-.11.25-.05.08-.12.18-.18.25-.11.13-.19.25-.26.4-.07.16-.11.31-.14.49.03.08.09.13.16.17.21.12.51.18.76.19.09,0,.14,0,.23-.01.05,0,.08-.03.11-.07.03-.05.04-.11.04-.17,0-.07.01-.14.02-.21.02-.18.13-.32.29-.39h0s.09-.03.13-.04c.05-.01.1-.02.15-.04.02,0,0-.09-.01-.12l-.05-.15c-.02-.05-.03-.12-.02-.18,0-.14.23-.3.33-.36.14-.09.27-.16.42-.24.3-.15.57-.26.89-.38.17-.06.39-.08.57-.08.21,0,.41.03.62.07.47.1.86.22,1.29.41.08.04.28.13.39.07.06-.04.13-.05.21-.02.13.03.24.07.36.13h0c.12.06.24.15.34.24l.21.2c.08.08.16.15.24.22.17.12.4.2.61.25.01,0,.02.01.02.03,0,.05,0,.15,0,.21,0,.04,0,.07-.01.11-.02.07-.1.11-.17.1-.03,0-.06-.03-.09-.05-.04-.04-.09-.07-.15-.08-.08,0-.12-.02-.22-.04-.07-.01-.13.03-.16.09-.02.05-.04.09-.05.14-.01.05.06.14.1.18.16.16.33.27.52.38.22.12.44.18.68.22v.26s.68.17.68.17l.44-.5c.18.08.34.15.53.22.59.23,1.13.37,1.75.37h0s.02.02.02.03c-.07.39-.14.72-.24,1.11-.14.55-.22,1.13-.25,1.69,0,.2-.03.4-.1.59-.13.37-.4.4-.73.5-.08.02-.14.04-.22.08-.21.09-.39.16-.61.24-.24.09-.44.16-.68.24-.27.09-.49.17-.75.27-.23.09-.64.27-.79.52-.03.06-.06.1-.11.15-.05.05-.12.1-.19.12-.08.02-.16.01-.24-.01-.08-.02-.14-.03-.22-.04-.06,0-.12-.02-.18-.03-.16-.03-.29-.05-.45-.07-.33-.04-.7-.04-1.01.09-.24.1-.4.33-.44.58-.02.19.03.4.08.58.05.16.07.3.09.46h11.55c-.15-.29-.25-.37-.56-.51,0,0-.01,0-.01-.02,0-.01,0-.03.02-.03.96-.2,1.59-.38,2.1-1.2.16-.26.38-.5.59-.72.18-.19.35-.41.48-.64.14-.26.24-.53.31-.81.09-.34.15-.62.21-.96.04-.21.08-.38.12-.58.04-.17.11-.45.24-.59.03-.03.06-.06.1-.07.06-.02.1-.05.14-.1.12-.17.1-.49.12-.67.02-.15.03-.27.06-.41.02-.14.04-.3,0-.45-.07-.28-.34-.46-.6-.57h0c-.22-.11-.41-.2-.64-.3-.25-.11-.49-.21-.75-.28-.26-.07-.49-.1-.75-.1-.29,0-.54.03-.83.08-.01,0-.02,0-.03-.01-.22-.43-.45-.77-.77-1.13-.21-.24-.41-.42-.67-.61-.42-.31-.9-.54-1.41-.66l-.12-.03-.06-.02h0s-.09-.04-.14-.05c-.08-.02-.22-.07-.18-.18.01-.05.04-.08.07-.12.09-.1.15-.2.21-.32.14-.26.19-.55.15-.84-.02-.17-.05-.31-.09-.48h0s.01-.03.02-.03c.11,0,.21-.02.32-.04.05-.01.08-.03.12-.06.06-.06.11-.17.14-.25.12-.26.24-.49.4-.73.15-.22.26-.42.37-.66.18-.4.25-.81.08-1.22-.11-.25-.3-.52-.49-.74-.11-.13-.21-.24-.32-.37,0,0,0-.02,0-.02.02-.05.04-.1.08-.15.04-.06.07-.12.08-.2.02-.09.05-.16.09-.23.05-.1.12-.17.21-.23l.07-.05s.05-.04.07-.07c0,0,0-.02,0-.02,0-.01,0-.02-.02-.03l-.07-.08c-.2-.13-.38-.24-.59-.35-.38-.21-.7-.38-1.09-.58-.08-.04-.22-.1-.31-.03-.05.03-.07.11-.07.17,0,.08,0,.15.03.22l.02.07v.04s0,.02,0,.02c0,.02-.02.05-.04.06l-.14.05-.07.03s-.05.02-.07.04c-.05.05-.05.15-.07.22-.02.08.04.14.1.17.06.03.08.07.04.14-.05.09-.09.16-.13.25-.01.03-.02.06-.03.1,0,.06.05.09.09.12.09.06.12.11.1.22,0,.03,0,.06,0,.09,0,.03.01.05.03.07l.06.05.2.17c-.17-.02-.33-.03-.5-.04-.16,0-.29.03-.43.1-.15.07-.36.11-.53.13l-.35.06c-.13.02-.24.05-.37.09-.2.06-.39.14-.57.25-.09.06-.16.12-.22.21-.07.09-.09.19-.08.3.04.34.23.45.53.59.35.16.59.28.82.55h0Zm-25.06,15.42l.76.49-.05-1.34-.71.86h0Zm-.33-.31l1.81-2.14-.16-1.63-1.74,3.01.09.77h0Zm-.26-1.72l1.75-3.37-.56-1.12-1.52,2.93.33,1.55h0Zm-.53-2.44l1.45-2.87-.58-.76-1.21,2.06.33,1.57h0Zm-.62-2.37l.99-1.82-.56-.74-.81.98.38,1.58h0Zm-.55-2.46l.39-.7-.86-.66.48,1.36h0Zm-.38,1.06l-.76-2.45-.53,1.15,1.3,1.3h0Zm.2,1.29l-1.95-1.54-.36,1.2,2.64,2.36-.33-2.02h0Zm.76,4.37l-.24-1.64-2.95-2.13.09,1.76,3.1,2.01h0Zm.32.9l-3.32-1.88.16.92,3.32,1.87-.16-.9h0Zm.18,1.66l-2.68-1.47.97,1.58,1.71-.11h0Zm6.42,8.43l-3.32.74.92.43,2.81-.65-.42-.52h0Zm.89-.26h.83l-.58-1.38-.25,1.38h0Zm-.57-.48l.34-2.83-1.02-1.27.19,3.5.49.6h0Zm-1.15-1.28l-.37-3.84-1.07-.58.34,3.31,1.1,1.1h0Zm-1.76-1.7l-.34-3.24-.88-.29.1,2.4,1.12,1.14h0Zm-1.8-1.64l-.14-2.09-.89-.29-.12,1.28,1.15,1.1h0Zm-1.78-1.72l-.07-.81-1.05-.06,1.12.87h0Zm.28,1.07l-1.97-1.57.18,1.26,1.79.31h0Zm.86.97l-2.44-.14.35,1.2,3.46.44-1.37-1.5h0Zm3.01,3.19l-1.09-1.21-3.61-.09,1.02,1.44,3.68-.14h0Zm.76.57l-3.77.33.64.7,3.76-.38-.63-.64h0Zm9.97,6.51l-2.78,2.17,1-.09,2.28-1.56-.5-.52h0Zm.08-.79l1.56.31-2.01-1.64.45,1.33h0Zm-.72-.1l-1.09-2.65-1.49-.54,1.86,2.92.73.28h0Zm-1.64-.54l-1.77-2.99-1.38-.18,1.66,2.8,1.48.38h0Zm-2.35-.56l-1.59-2.52-1.17.09,1.26,2.02,1.5.41h0Zm-2.35-.48l-1.12-1.73-.91.22.5,1.17,1.54.34h0Zm-2.36-.55l-.47-.68-.73.25,1.2.43h0Zm.73.77l-2.46-.35.76,1,1.7-.66h0Zm1.09.11l-2.22,1.12.89.86,3.22-1.41-1.89-.57h0Zm4.12,1.44l-1.52-.5-3.17,1.8,1.59.69,3.1-1.99h0Zm1.24.26l-3.27,2.13,1.51.38,3.2-2.27-1.45-.23h0Zm2.88,2.95l-1.73-.44.61,1.07,1.12-.62h0Zm.72-.37l-.59-1.14-1.01.68,1.6.46h0Zm.9.19l1.91.69-1.42-3.01-1.36.6.86,1.71h0Zm2.85,1.06l1.54.45-1.86-4.03-1.25.14,1.57,3.44h0Zm.7-3.05l1.57,3.81,1.26.29-1.69-3.99-1.14-.11h0Zm2.6,4.92l-.87-.16-2.67,1.61,1.74.38,1.81-1.83h0Zm-4.48,1.26l2.87-1.65-1.19-.42-2.81,1.45,1.13.61h0Zm-1.62-1.06l2.75-1.27-1.69-.48-2.11,1.02,1.04.74h0Zm-1.42-1.1l1.93-.96-1.39-.52-1.48.57.94.91h0Zm17.39-1.86l1.12.62.61-1.07-1.73.44h0Zm-.72-.37l1.6-.46-1.01-.68-.59,1.14h0Zm-.9.19l.87-1.71-1.36-.6-1.42,3.01,1.91-.69h0Zm-2.85,1.06l1.57-3.44-1.25-.14-1.86,4.03,1.54-.45h0Zm-.7-3.05l-1.14.11-1.69,3.99,1.26-.29,1.57-3.81h0Zm1.88,6.18l1.13-.61-2.81-1.45-1.19.42,2.87,1.65h0Zm1.62-1.06l1.04-.74-2.11-1.02-1.69.48,2.75,1.27h0Zm1.42-1.1l.94-.91-1.48-.57-1.39.52,1.93.96h0Zm.98-4.35l-.5.52,2.28,1.56,1,.09-2.78-2.17h0Zm-.08-.79l.45-1.33-2,1.64,1.56-.31h0Zm.72-.1l.73-.28,1.86-2.92-1.49.54-1.09,2.65h0Zm1.64-.54l1.48-.38,1.66-2.8-1.38.18-1.77,2.99h0Zm2.35-.56l1.5-.41,1.26-2.02-1.17-.09-1.59,2.52h0Zm2.35-.48l1.54-.34.5-1.17-.91-.22-1.12,1.73h0Zm2.36-.55l1.2-.43-.73-.25-.47.68h0Zm-.73.77l1.7.66.76-1-2.46.35h0Zm-1.09.11l-1.89.57,3.22,1.41.89-.86-2.22-1.12h0Zm-4.12,1.44l3.1,1.99,1.59-.69-3.17-1.8-1.52.5h0Zm-1.24.26l-1.45.23,3.2,2.27,1.51-.38-3.27-2.13h0Zm6.53-4.77l-.42.52,2.81.65.92-.43-3.31-.74h0Zm-.89-.26l-.25-1.38-.58,1.38h.83Zm.57-.48l.49-.6.19-3.5-1.02,1.27.34,2.83h0Zm1.15-1.28l1.1-1.1.34-3.31-1.07.58-.37,3.84h0Zm1.21.16l3.68.14,1.02-1.44-3.61.09-1.09,1.21h0Zm-.76.57l-.63.64,3.76.38.64-.7-3.77-.33h0Zm-20.67-31.71l-.91-1.95-.29,1.78-1.27-2.72-.17,3.3-1.07-1.07v1.19l-2.57-4.11-.43.17,1.01,4.68-1.18-1.31.15,1.79-1.98-2.1-.38.24,1.22,3.16-1.67-1.26.44,1.5-3.51-2.61-.34.32,2.61,3.9-1.88-.72.94,1.5-1.98-.99-.28.36,1.78,2.01-1.6-.4.93,1.4-5.44-.84,4.19,2.63-1.67-.13,1.85,1.53h-3.07l2.7,1.35-1.37.28,1.87,1.15-5.32.83,4.17,1.07-2.13.46,2.78.65-2.71.95.07.45,2.71.12-1.37.83,2.15.28-3,1.62.14.44,2.91-.35-1.71,1.55,2.45-.46-1.97,1.97,2.73-.64-1.36,1.87,1.7-.77-1.05,1.57,3.03-.76h20.61l3.03.76-1.05-1.57,1.7.77-1.36-1.87,2.73.64-1.97-1.97,2.45.46-1.71-1.55,2.91.35.14-.44-3-1.62,2.16-.28-1.38-.83,2.72-.11.07-.45-2.73-.95,2.77-.65-2.12-.46,4.15-1.07-5.3-.83,1.87-1.15-1.38-.28,2.68-1.35h-3.05l1.85-1.53-1.68.13,4.17-2.63-5.42.84.93-1.4-1.6.4,1.78-2.01-.28-.36-1.99.99.96-1.5-1.89.72,2.61-3.9-.34-.32-3.52,2.6.45-1.5-1.68,1.27,1.22-3.16-.38-.24-1.98,2.1.15-1.79-1.18,1.31,1.01-4.68-.43-.17-2.57,4.11v-1.19l-1.07,1.07-.17-3.3-1.27,2.72-.29-1.78-.91,1.95-.92-4.99h-.46s-.91,4.99-.91,4.99h0Zm2.21,43.47l.87-.16,2.67,1.61-1.74.38-1.81-1.83h0Zm-.62-.06l1.41,1.84-1.32.2-.53-1.05-.53,1.05-1.32-.2,1.41-1.84h.87Zm-1.83-4l.68.24.72,1.52.72-1.52.68-.24-1.35,3.38h-.09l-1.35-3.38h0Z"/>
    <path class="cls-1" d="m80.16,38.05c0,.57-.12,1.06-.35,1.47-.24.41-.56.75-.98,1.01-.41.26-.9.45-1.45.58-.55.12-1.13.19-1.75.19h-6.19v-12.67h7.31c.44,0,.83.1,1.19.29.35.19.66.44.9.74.25.3.44.65.58,1.04.14.39.2.78.2,1.19,0,.6-.15,1.16-.45,1.7-.3.54-.75.95-1.36,1.22.72.21,1.29.59,1.71,1.12.42.53.63,1.24.63,2.13h0Zm-3.51-.71c0-.31-.08-.57-.25-.78-.17-.21-.38-.31-.64-.31h-2.85v2.12h2.73c.28,0,.52-.09.72-.27.2-.18.29-.43.29-.77h0Zm-3.74-5.75v1.95h2.36c.24,0,.45-.07.65-.2.2-.13.29-.39.29-.79,0-.35-.08-.59-.25-.74-.17-.15-.36-.22-.59-.22h-2.46Z"/>
    <path class="cls-1" d="m87.15,38.32c.4,0,.74-.09,1.03-.27.28-.18.51-.41.69-.71.18-.29.31-.63.39-1.01.08-.38.12-.78.12-1.2v-6.51h3.46v6.51c0,.88-.11,1.7-.34,2.47-.22.77-.57,1.43-1.05,1.99-.47.56-1.07,1-1.78,1.32-.72.32-1.56.48-2.53.48s-1.87-.17-2.58-.51c-.72-.34-1.3-.79-1.76-1.37-.46-.57-.8-1.23-1.01-1.99-.21-.76-.32-1.56-.32-2.4v-6.51h3.46v6.51c0,.42.04.82.12,1.2.08.39.21.73.39,1.02.18.29.41.52.68.7.28.17.62.26,1.02.26h0Zm-3.42-10.67v-2.5h2.77v2.5h-2.77Zm4.08,0v-2.5h2.77v2.5h-2.77Z"/>
    <polygon class="cls-1" points="97.24 28.63 99.49 34.11 101.8 28.63 105.56 28.63 101.21 37.11 101.21 41.3 97.77 41.3 97.77 37.07 93.5 28.63 97.24 28.63 97.24 28.63"/>
    <path class="cls-1" d="m111.85,38.32c.4,0,.74-.09,1.03-.27.28-.18.51-.41.69-.71.18-.29.31-.63.39-1.01.08-.38.12-.78.12-1.2v-6.51h3.46v6.51c0,.88-.11,1.7-.34,2.47-.22.77-.57,1.43-1.05,1.99-.47.56-1.07,1-1.78,1.32-.72.32-1.56.48-2.53.48s-1.87-.17-2.58-.51c-.72-.34-1.3-.79-1.76-1.37-.46-.57-.8-1.23-1.01-1.99-.21-.76-.32-1.56-.32-2.4v-6.51h3.46v6.51c0,.42.04.82.12,1.2.08.39.21.73.39,1.02.18.29.41.52.68.7.28.17.62.26,1.02.26h0Zm-3.42-10.67v-2.5h2.77v2.5h-2.77Zm4.08,0v-2.5h2.77v2.5h-2.77Z"/>
    <polygon class="cls-1" points="119.52 41.3 119.52 28.63 122.97 28.63 122.97 33.8 127.16 28.63 130.71 28.63 126.13 34.3 131.02 41.3 127.41 41.3 124.09 36.25 122.97 37.53 122.97 41.3 119.52 41.3 119.52 41.3"/>
    <path class="cls-1" d="m139.16,32.77c-.35-.21-.72-.4-1.1-.57-.32-.14-.68-.28-1.07-.4-.4-.12-.78-.19-1.16-.19-.31,0-.55.05-.74.14-.18.1-.27.26-.27.48,0,.17.05.3.16.41.11.11.26.21.46.29.2.09.45.18.74.26.29.08.62.18.98.3.58.18,1.1.37,1.57.59s.87.47,1.2.76c.33.29.59.65.76,1.06.18.42.27.92.27,1.52,0,.76-.14,1.4-.42,1.92-.28.52-.64.93-1.1,1.24-.45.31-.97.53-1.54.67-.57.14-1.15.21-1.73.21-.46,0-.93-.04-1.42-.11-.48-.07-.97-.17-1.45-.3-.48-.13-.94-.29-1.38-.46-.44-.18-.85-.38-1.23-.61l1.49-3.05c.41.26.85.49,1.29.7.38.18.81.34,1.29.48.48.14.97.21,1.46.21.38,0,.64-.05.79-.15.15-.1.22-.24.22-.4,0-.18-.07-.33-.22-.45-.15-.12-.35-.24-.61-.33-.26-.1-.56-.19-.9-.29-.34-.1-.69-.21-1.07-.34-.56-.19-1.03-.4-1.44-.62-.4-.22-.73-.47-.99-.75-.26-.28-.45-.6-.58-.95-.12-.36-.19-.77-.19-1.23,0-.7.13-1.32.38-1.86.25-.54.6-.98,1.04-1.34.44-.36.94-.63,1.5-.81.56-.18,1.16-.28,1.78-.28.46,0,.91.04,1.35.13.44.09.86.2,1.27.34.41.14.79.29,1.14.45.35.16.67.31.96.46l-1.49,2.87h0Zm-1.13,9.11v1.87h-3.48v-1.77s.09.01.13.02c.49.07.99.11,1.48.11.62,0,1.23-.07,1.83-.22h.04Z"/>
    <polygon class="cls-1" points="151.45 38.27 151.45 41.3 142.48 41.3 142.48 28.63 151.3 28.63 151.3 31.66 145.94 31.66 145.94 33.45 150.51 33.45 150.51 36.27 145.94 36.27 145.94 38.27 151.45 38.27 151.45 38.27"/>
    <polygon class="cls-1" points="164.21 28.63 164.21 41.3 160.75 41.3 160.75 36.34 156.53 36.34 156.53 41.3 153.07 41.3 153.07 28.63 156.53 28.63 156.53 33.3 160.75 33.3 160.75 28.63 164.21 28.63 164.21 28.63"/>
    <path class="cls-1" d="m166.37,41.3v-12.67h3.46v12.67h-3.46Zm.21-13.64v-2.68h3.01v2.68h-3.01Z"/>
    <path class="cls-1" d="m171.99,41.3v-12.67h5.78c.62,0,1.18.13,1.7.38.52.26.97.59,1.34,1,.37.41.66.88.88,1.41.21.53.32,1.06.32,1.6,0,.74-.16,1.43-.48,2.06-.32.64-.76,1.16-1.33,1.56l2.84,4.66h-3.9l-2.39-3.89h-1.29v3.89h-3.46Zm3.46-6.93h2.18c.21,0,.41-.12.59-.36.18-.24.28-.57.28-1s-.11-.78-.32-1.01c-.21-.23-.43-.35-.64-.35h-2.09v2.71h0Z"/>
    <path class="cls-1" d="m75.06,52.14c0,.28-.06.53-.18.75-.12.22-.27.41-.47.56-.2.15-.43.27-.7.35-.27.08-.55.12-.85.12h-3.41v-6.95h3.68c.25,0,.47.05.67.16.2.1.37.24.51.41.14.17.25.36.33.57.08.21.12.43.12.64,0,.34-.09.66-.27.95-.18.3-.43.52-.76.66.41.12.73.33.97.64.24.31.36.69.36,1.13h0Zm-1.16-.21c0-.14-.03-.28-.08-.41-.05-.13-.12-.24-.2-.34-.08-.1-.19-.18-.31-.24-.12-.06-.25-.09-.39-.09h-2.35v2.13h2.28c.15,0,.28-.03.41-.08.13-.06.24-.13.33-.23.09-.09.17-.21.22-.33.05-.13.08-.26.08-.41h0Zm-3.33-4.01v2.05h2.07c.14,0,.27-.03.39-.08.12-.05.22-.12.31-.21.09-.09.16-.19.21-.32.05-.12.08-.26.08-.41,0-.3-.09-.55-.26-.74-.17-.19-.4-.29-.66-.29h-2.13Zm11.3,5.03v.97h-4.89v-6.95h4.8v.97h-3.68v1.98h3.19v.91h-3.19v2.13h3.77Zm1.91.97v-6.95h1.13v5.98h3.83v.97h-4.95Zm11.51-.97v.97h-4.89v-6.95h4.8v.97h-3.68v1.98h3.19v.91h-3.19v2.13h3.77Zm1.91.97v-6.95h2.53c.58,0,1.08.09,1.51.27.43.18.79.43,1.09.74.29.31.51.68.66,1.1.15.42.22.87.22,1.35,0,.53-.08,1.01-.25,1.43-.16.43-.4.79-.7,1.1-.3.3-.67.54-1.1.71-.43.17-.91.25-1.44.25h-2.53Zm4.86-3.49c0-.37-.05-.7-.16-1.01-.1-.31-.26-.57-.46-.79-.2-.22-.45-.39-.73-.51-.29-.12-.62-.19-.99-.19h-1.41v5.01h1.41c.38,0,.71-.06,1-.19.29-.13.54-.3.73-.53.2-.23.35-.49.45-.8.1-.31.15-.64.15-1h0Zm3.08,3.49v-6.95h1.13v6.95h-1.13Zm.06-7.85v-1.13h.99v1.13h-.99Zm3.94.89l1.97,3.49,1.99-3.49h1.24l-2.66,4.47v2.49h-1.13v-2.51l-2.64-4.45h1.24Zm11.72,5.98v.97h-4.89v-6.95h4.8v.97h-3.68v1.98h3.19v.91h-3.19v2.13h3.77Zm5.98-4.35c-.07-.07-.16-.15-.29-.23-.13-.08-.28-.16-.45-.23-.17-.07-.36-.13-.56-.18-.2-.05-.41-.07-.63-.07-.48,0-.83.08-1.05.25-.22.17-.34.4-.34.71,0,.17.04.31.11.42.07.11.18.2.33.28.15.08.33.15.55.22.22.06.48.13.77.2.36.08.69.18.98.28.29.1.54.23.74.38.2.15.36.33.47.55.11.22.17.48.17.8,0,.35-.07.66-.21.91-.14.25-.33.46-.56.62-.24.16-.51.28-.83.35-.31.07-.65.11-1.01.11-.54,0-1.07-.08-1.57-.24-.51-.16-.96-.39-1.37-.7l.51-.94c.09.08.21.18.38.28.16.1.35.2.57.29.22.09.45.16.71.23.25.06.52.09.79.09.44,0,.78-.08,1.03-.23s.36-.37.36-.67c0-.18-.05-.32-.14-.44-.09-.12-.22-.22-.39-.31-.17-.09-.37-.17-.61-.24-.24-.07-.52-.15-.82-.23-.36-.09-.66-.19-.93-.29-.26-.1-.48-.22-.66-.37-.17-.14-.31-.31-.4-.5-.09-.19-.14-.43-.14-.7,0-.34.07-.64.2-.91.13-.26.32-.49.55-.67.23-.18.5-.32.82-.41.32-.09.66-.14,1.03-.14.48,0,.93.08,1.34.23.41.15.77.34,1.08.56l-.51.9h0Zm2.66,5.32v-6.95h1.13v6.95h-1.13Zm.06-7.85v-1.13h1v1.13h-1Z"/>
    <path class="cls-1" d="m74.21,17.3c-.07-.07-.16-.15-.29-.23-.13-.08-.28-.16-.45-.23-.17-.07-.36-.13-.56-.18-.2-.05-.41-.07-.63-.07-.48,0-.83.08-1.05.25-.22.17-.34.4-.34.71,0,.17.03.31.11.42.07.11.18.2.33.28.15.08.33.15.55.22.22.06.48.13.77.2.36.08.69.18.98.28.29.1.54.23.74.38.2.15.36.33.47.55.11.22.17.48.17.8,0,.35-.07.66-.21.91-.14.25-.33.46-.56.62-.24.16-.51.28-.83.35-.32.07-.65.11-1.02.11-.54,0-1.07-.08-1.57-.24-.51-.16-.96-.39-1.37-.7l.51-.94c.09.08.21.18.38.28.16.1.36.2.57.29.22.09.45.16.71.23.25.06.52.09.79.09.44,0,.78-.08,1.03-.23.24-.15.36-.37.36-.67,0-.18-.05-.32-.14-.44-.09-.12-.22-.22-.39-.31-.17-.09-.37-.17-.61-.24-.24-.07-.52-.15-.82-.23-.36-.09-.67-.19-.93-.29-.26-.1-.48-.22-.66-.37-.17-.14-.31-.31-.4-.5-.09-.19-.14-.43-.14-.7,0-.34.07-.64.2-.91.13-.26.32-.49.55-.67.23-.18.5-.32.82-.41.31-.09.66-.14,1.02-.14.48,0,.93.08,1.34.23.41.15.77.34,1.08.56l-.51.9h0Zm4.64-1.64h.98l2.81,6.95h-1.19l-.75-1.89h-2.75l-.74,1.89h-1.2l2.83-6.95h0Zm1.64,4.25l-1.15-2.99-1.19,2.99h2.33Zm9.79,2.7v-5.01l-2.12,3.79h-.62l-2.13-3.79v5.01h-1.13v-6.95h1.21l2.36,4.25,2.36-4.25h1.21v6.95h-1.14Zm7.71-5.32c-.07-.07-.16-.15-.29-.23-.13-.08-.28-.16-.45-.23-.17-.07-.36-.13-.56-.18-.2-.05-.41-.07-.63-.07-.48,0-.83.08-1.05.25-.22.17-.34.4-.34.71,0,.17.04.31.11.42.07.11.18.2.33.28.15.08.33.15.55.22.22.06.48.13.77.2.36.08.69.18.98.28.29.1.54.23.74.38.2.15.36.33.47.55.11.22.17.48.17.8,0,.35-.07.66-.21.91-.14.25-.32.46-.56.62-.24.16-.51.28-.83.35-.31.07-.65.11-1.02.11-.54,0-1.07-.08-1.57-.24-.51-.16-.96-.39-1.37-.7l.51-.94c.09.08.21.18.38.28.16.1.36.2.57.29.22.09.45.16.71.23.25.06.52.09.79.09.44,0,.78-.08,1.03-.23.24-.15.36-.37.36-.67,0-.18-.05-.32-.14-.44-.09-.12-.22-.22-.39-.31-.17-.09-.37-.17-.61-.24-.24-.07-.52-.15-.82-.23-.35-.09-.66-.19-.93-.29-.26-.1-.48-.22-.66-.37-.17-.14-.31-.31-.4-.5-.09-.19-.14-.43-.14-.7,0-.34.07-.64.2-.91.13-.26.32-.49.55-.67.23-.18.5-.32.82-.41.31-.09.66-.14,1.03-.14.48,0,.93.08,1.34.23.41.15.77.34,1.08.56l-.51.9h0Zm5.64,4.38c.37,0,.69-.07.93-.22.25-.14.45-.33.6-.56.15-.23.26-.5.32-.79.06-.3.1-.6.1-.92v-3.53h1.14v3.53c0,.48-.06.93-.17,1.35-.11.42-.29.79-.54,1.11-.25.32-.57.57-.96.75-.39.18-.86.27-1.41.27s-1.05-.1-1.44-.29c-.39-.19-.71-.45-.95-.77-.24-.32-.42-.69-.52-1.11-.11-.42-.16-.85-.16-1.3v-3.53h1.13v3.53c0,.32.03.63.1.93.06.3.17.56.32.79.15.23.35.42.6.56.25.14.56.21.93.21h0Zm6.45-3.96v4.9h-1.13v-6.95h.88l4.08,5.01v-5.01h1.14v6.94h-.93l-4.04-4.9h0Z"/>
  </g>
</svg>